<?xml version="1.0" encoding="UTF-8"?>
<svg xmlns="http://www.w3.org/2000/svg" xmlns:xlink="http://www.w3.org/1999/xlink" width="40pt" height="40pt" viewBox="0 0 40 40" version="1.1">
<g id="surface1">
<path style=" stroke:none;fill-rule:nonzero;fill:rgb(92.941176%,73.333333%,59.607843%);fill-opacity:1;" d="M 20.992188 32.3125 L 19.007812 32.3125 C 17.320312 32.3125 15.953125 30.945312 15.953125 29.257812 L 15.953125 24.835938 C 15.953125 23.148438 17.320312 21.78125 19.007812 21.78125 L 20.992188 21.78125 C 22.679688 21.78125 24.046875 23.148438 24.046875 24.835938 L 24.046875 29.257812 C 24.046875 30.945312 22.679688 32.3125 20.992188 32.3125 Z M 20.992188 32.3125 "/>
<path style=" stroke:none;fill-rule:nonzero;fill:rgb(16.862745%,0%,100%);fill-opacity:1;" d="M 24.046875 29.1875 L 24.046875 29.257812 C 24.046875 30.945312 22.679688 32.3125 20.992188 32.3125 L 19.007812 32.3125 C 17.320312 32.3125 15.953125 30.945312 15.953125 29.257812 L 15.953125 29.1875 C 9.59375 30.5625 4.640625 34.796875 3.3125 39.96875 C 3.296875 40.039062 11.734375 39.96875 20 39.96875 C 28.265625 39.96875 36.710938 40.039062 36.6875 39.96875 C 35.359375 34.796875 30.40625 30.5625 24.046875 29.1875 Z M 24.046875 29.1875 "/>
<path style=" stroke:none;fill-rule:nonzero;fill:rgb(95.686275%,77.254902%,63.529412%);fill-opacity:1;" d="M 32.300781 17.25 C 32.664062 15.578125 31.976562 14.011719 30.765625 13.75 C 29.558594 13.488281 28.28125 14.628906 27.917969 16.296875 C 27.554688 17.964844 28.242188 19.53125 29.453125 19.796875 C 30.664062 20.058594 31.9375 18.917969 32.300781 17.25 Z M 32.300781 17.25 "/>
<path style=" stroke:none;fill-rule:nonzero;fill:rgb(95.686275%,77.254902%,63.529412%);fill-opacity:1;" d="M 8.085938 17.453125 C 8.449219 19.121094 9.726562 20.261719 10.933594 20 C 12.144531 19.734375 12.832031 18.167969 12.46875 16.5 C 12.105469 14.828125 10.832031 13.6875 9.621094 13.953125 C 8.410156 14.214844 7.722656 15.78125 8.085938 17.453125 Z M 8.085938 17.453125 "/>
<path style=" stroke:none;fill-rule:nonzero;fill:rgb(95.686275%,77.254902%,63.529412%);fill-opacity:1;" d="M 29.84375 16.578125 C 29.84375 10.378906 25.535156 5.351562 20.21875 5.351562 C 14.902344 5.351562 10.59375 10.378906 10.59375 16.578125 C 10.59375 22.777344 14.902344 27.804688 20.21875 27.804688 C 25.535156 27.804688 29.84375 22.777344 29.84375 16.578125 Z M 29.84375 16.578125 "/>
<path style=" stroke:none;fill-rule:nonzero;fill:rgb(24.705882%,15.686275%,12.54902%);fill-opacity:1;" d="M 20.21875 7.546875 C 20.21875 7.546875 22.335938 11.75 27.226562 12.117188 C 27.226562 12.117188 28.625 15.078125 27.875 16.570312 L 29.570312 13.914062 C 29.570312 13.914062 31.0625 13.515625 31.90625 14.570312 C 31.90625 14.570312 33.921875 5.523438 27.59375 1.960938 C 27.59375 1.960938 28.710938 1.21875 28.867188 1.21875 C 29.023438 1.21875 27.171875 1.328125 26.585938 1.640625 L 26.585938 0 L 25.46875 1.382812 C 25.46875 1.382812 18.78125 -2.382812 11.070312 2.773438 C 11.070312 2.773438 5.71875 7.132812 8.3125 15.078125 C 8.3125 15.078125 9.15625 13.265625 10.804688 14.265625 C 10.804688 14.265625 11.726562 16.085938 12.539062 16.976562 C 12.539062 16.976562 11.382812 12.601562 13.5625 9.945312 C 13.5625 9.945312 13.804688 11.828125 14.960938 12.125 C 14.960938 12.125 14.289062 10.617188 15.257812 8.492188 C 15.257812 8.492188 16.03125 12.648438 19.507812 12.710938 C 19.523438 12.703125 17.101562 9.148438 20.21875 7.546875 Z M 20.21875 7.546875 "/>
<path style=" stroke:none;fill-rule:nonzero;fill:rgb(10.196078%,10.196078%,10.196078%);fill-opacity:1;" d="M 24.21875 18.4375 C 22.46875 18.4375 21.046875 17.015625 21.046875 15.265625 C 21.046875 13.515625 22.46875 12.09375 24.21875 12.09375 C 25.96875 12.09375 27.390625 13.515625 27.390625 15.265625 C 27.390625 17.015625 25.960938 18.4375 24.21875 18.4375 Z M 24.21875 12.539062 C 22.71875 12.539062 21.492188 13.765625 21.492188 15.265625 C 21.492188 16.765625 22.71875 17.992188 24.21875 17.992188 C 25.71875 17.992188 26.945312 16.765625 26.945312 15.265625 C 26.945312 13.765625 25.71875 12.539062 24.21875 12.539062 Z M 24.21875 12.539062 "/>
<path style=" stroke:none;fill-rule:nonzero;fill:rgb(10.196078%,10.196078%,10.196078%);fill-opacity:1;" d="M 16.125 18.4375 C 14.375 18.4375 12.953125 17.015625 12.953125 15.265625 C 12.953125 13.515625 14.375 12.09375 16.125 12.09375 C 17.875 12.09375 19.296875 13.515625 19.296875 15.265625 C 19.296875 17.015625 17.875 18.4375 16.125 18.4375 Z M 16.125 12.539062 C 14.625 12.539062 13.398438 13.765625 13.398438 15.265625 C 13.398438 16.765625 14.625 17.992188 16.125 17.992188 C 17.625 17.992188 18.851562 16.765625 18.851562 15.265625 C 18.851562 13.765625 17.625 12.539062 16.125 12.539062 Z M 16.125 12.539062 "/>
<path style=" stroke:none;fill-rule:nonzero;fill:rgb(10.196078%,10.196078%,10.196078%);fill-opacity:1;" d="M 19.648438 14.828125 C 18.921875 14.828125 18.90625 14.78125 18.859375 14.65625 L 18.9375 14.40625 L 19.210938 14.757812 L 19.078125 14.585938 L 19.085938 14.539062 C 19.0625 14.4375 19.179688 14.382812 19.132812 14.375 C 19.28125 14.398438 20.515625 14.382812 21.351562 14.359375 L 21.359375 14.804688 C 20.546875 14.820312 20.007812 14.828125 19.648438 14.828125 Z M 19.648438 14.828125 "/>
<path style=" stroke:none;fill-rule:nonzero;fill:rgb(10.196078%,10.196078%,10.196078%);fill-opacity:1;" d="M 26.675781 13.320312 L 29.226562 14.386719 L 29.054688 14.796875 L 26.503906 13.730469 Z M 26.675781 13.320312 "/>
<path style=" stroke:none;fill-rule:nonzero;fill:rgb(10.196078%,10.196078%,10.196078%);fill-opacity:1;" d="M 13.699219 13.265625 L 13.878906 13.671875 L 11.121094 14.890625 L 10.941406 14.484375 Z M 13.699219 13.265625 "/>
</g>
</svg>
